<svg width="25" height="25" viewBox="0 0 25 25" fill="none" xmlns="http://www.w3.org/2000/svg">
<path d="M8.75 20.75C9.16421 20.75 9.5 20.4142 9.5 20C9.5 19.5858 9.16421 19.25 8.75 19.25C8.33579 19.25 8 19.5858 8 20C8 20.4142 8.33579 20.75 8.75 20.75Z" stroke="white" stroke-width="1.5" stroke-linecap="round" stroke-linejoin="round"/>
<path d="M19.25 20.75C19.6642 20.75 20 20.4142 20 20C20 19.5858 19.6642 19.25 19.25 19.25C18.8358 19.25 18.5 19.5858 18.5 20C18.5 20.4142 18.8358 20.75 19.25 20.75Z" stroke="white" stroke-width="1.5" stroke-linecap="round" stroke-linejoin="round"/>
<path d="M2.75 4.25H5.75L8 17H20" stroke="white" stroke-width="1.5" stroke-linecap="round" stroke-linejoin="round"/>
<path d="M8 13H19.6925C19.7792 13.0001 19.8633 12.9701 19.9304 12.9151C19.9975 12.8601 20.0434 12.7836 20.0605 12.6986L21.4105 5.94859C21.4214 5.89417 21.42 5.838 21.4066 5.78414C21.3931 5.73029 21.3679 5.68009 21.3327 5.63717C21.2975 5.59426 21.2532 5.55969 21.203 5.53597C21.1528 5.51225 21.098 5.49996 21.0425 5.5H6.5" stroke="white" stroke-width="1.5" stroke-linecap="round" stroke-linejoin="round"/>
</svg>
