<svg width="80" height="80" viewBox="0 0 80 80" fill="none" xmlns="http://www.w3.org/2000/svg">
<path d="M27.5 67.5C28.8807 67.5 30 66.3807 30 65C30 63.6193 28.8807 62.5 27.5 62.5C26.1193 62.5 25 63.6193 25 65C25 66.3807 26.1193 67.5 27.5 67.5Z" stroke="#FAFAFA" stroke-width="1.5" stroke-linecap="round" stroke-linejoin="round"/>
<path d="M62.5 67.5C63.8807 67.5 65 66.3807 65 65C65 63.6193 63.8807 62.5 62.5 62.5C61.1193 62.5 60 63.6193 60 65C60 66.3807 61.1193 67.5 62.5 67.5Z" stroke="#FAFAFA" stroke-width="1.5" stroke-linecap="round" stroke-linejoin="round"/>
<path d="M7.5 12.5H17.5L25 55H65" stroke="#FAFAFA" stroke-width="1.5" stroke-linecap="round" stroke-linejoin="round"/>
<path d="M25 41.6667H63.975C64.2641 41.6669 64.5443 41.5669 64.768 41.3837C64.9916 41.2005 65.1448 40.9454 65.2016 40.662L69.7016 18.162C69.7379 17.9805 69.7335 17.7933 69.6886 17.6138C69.6438 17.4343 69.5597 17.267 69.4423 17.1239C69.325 16.9809 69.1773 16.8656 69.0101 16.7866C68.8428 16.7075 68.66 16.6665 68.475 16.6667H20" stroke="#FAFAFA" stroke-width="1.5" stroke-linecap="round" stroke-linejoin="round"/>
</svg>
